<?xml version="1.0"?>
<svg xmlns="http://www.w3.org/2000/svg" height="512px" viewBox="0 0 480 480" width="512px"><g><path d="m240 480c-132.546875 0-240-107.453125-240-240s107.453125-240 240-240 240 107.453125 240 240c-.148438 132.484375-107.515625 239.851562-240 240zm0-464c-123.710938 0-224 100.289062-224 224s100.289062 224 224 224 224-100.289062 224-224c-.140625-123.652344-100.347656-223.859375-224-224zm0 0" data-original="#000000" class="active-path" fill="#000000"/><path d="m158.398438 388.0625c-7.25-.003906-14.113282-3.292969-18.664063-8.941406-4.550781-5.644532-6.300781-13.046875-4.765625-20.136719l15.421875-71.578125c.578125-2.640625-.230469-5.390625-2.144531-7.300781l-51.75-52.167969c-6.359375-6.410156-8.582032-15.84375-5.757813-24.414062 2.824219-8.574219 10.21875-14.835938 19.140625-16.210938l65.320313-10.046875c2.410156-.371094 4.515625-1.816406 5.730469-3.929687l37.199218-64.839844c4.414063-7.695313 12.710938-12.328125 21.578125-12.046875 8.867188.28125 16.855469 5.429687 20.773438 13.390625l31 63.039062c1.164062 2.375 3.429687 4.019532 6.046875 4.394532l72.074218 10.300781c8.972657 1.296875 16.453126 7.542969 19.328126 16.144531 2.878906 8.597656.660156 18.085938-5.730469 24.519531l-51.457031 51.859375c-1.902344 1.917969-2.707032 4.667969-2.140626 7.308594l15.421876 71.578125c1.917968 8.890625-1.355469 18.101563-8.457032 23.789063-7.097656 5.6875-16.804687 6.871093-25.0625 3.058593l-68.152344-31.433593c-2.125-.980469-4.578124-.980469-6.703124 0l-68.199219 31.472656c-3.152344 1.449218-6.582031 2.195312-10.050781 2.191406zm80.5625-275.621094c-2.875-.050781-5.546876 1.484375-6.945313 4l-37.207031 64.847656c-3.628906 6.355469-9.96875 10.703126-17.207032 11.789063l-65.335937 10.050781c-2.976563.457032-5.441406 2.546875-6.378906 5.40625-.941407 2.859375-.199219 6 1.921875 8.136719l51.75 52.160156c5.726562 5.753907 8.136718 14.023438 6.402344 21.953125l-15.394532 71.613282c-.640625 2.972656.453125 6.050781 2.828125 7.945312 2.375 1.898438 5.621094 2.285156 8.375 1l68.199219-31.472656c6.378906-2.941406 13.726562-2.941406 20.101562 0l68.203126 31.472656c2.753906 1.285156 5.996093.898438 8.371093-1 2.375-1.894531 3.472657-4.972656 2.828125-7.945312l-15.425781-71.574219c-1.734375-7.933594.675781-16.203125 6.402344-21.960938l51.445312-51.847656c2.128907-2.144531 2.867188-5.308594 1.90625-8.175781-.960937-2.867188-3.457031-4.945313-6.449219-5.375l-72.152343-10.34375c-7.851563-1.125-14.644531-6.054688-18.144531-13.175782l-31-63.042968c-1.273438-2.679688-3.953126-4.40625-6.917969-4.460938zm0 0" data-original="#000000" class="active-path" fill="#000000"/></g> </svg>
